<svg width="24" height="24" viewBox="0 0 24 24" fill="none" xmlns="http://www.w3.org/2000/svg">
<path d="M12 6.5V7M12 6.5C12 4.9087 12.6321 3.38258 13.7574 2.25736C14.8826 1.13214 16.4087 0.5 18 0.5H18.5V7C18.5 8.72391 17.8152 10.3772 16.5962 11.5962C15.3772 12.8152 13.7239 13.5 12 13.5M12 6.5C12 4.9087 11.3679 3.38258 10.2426 2.25736C9.11742 1.13214 7.5913 0.5 6 0.5H5.5V7C5.5 8.72391 6.18482 10.3772 7.40381 11.5962C8.62279 12.8152 10.2761 13.5 12 13.5M12 13.5V23M12 13.5V22.5M12 23.5H7.5C5.9087 23.5 4.38258 22.8679 3.25736 21.7426C2.13214 20.6174 1.5 19.0913 1.5 17.5H6C7.5913 17.5 9.11742 18.1321 10.2426 19.2574C11.3679 20.3826 12 21.9087 12 23.5ZM12 23.5H16.5C18.0913 23.5 19.6174 22.8679 20.7426 21.7426C21.8679 20.6174 22.5 19.0913 22.5 17.5H18C16.4087 17.5 14.8826 18.1321 13.7574 19.2574C12.6321 20.3826 12 21.9087 12 23.5Z" stroke="black"/>
</svg>
