<svg width="24" height="24" viewBox="0 0 24 24" fill="none" xmlns="http://www.w3.org/2000/svg">
<path d="M1.5 14V17.5C1.5 18.0304 1.71071 18.5391 2.08579 18.9142C2.46086 19.2893 2.96957 19.5 3.5 19.5H5.5V23M22.5 14V17.5C22.5 18.0304 22.2893 18.5391 21.9142 18.9142C21.5391 19.2893 21.0304 19.5 20.5 19.5H18.5V23M12 8.5V15M5 16.5H19M12 16.5V23M1.5 8.5H22.5V6.5H22.414C22.1386 6.50001 21.8637 6.47727 21.592 6.432L21.196 6.366C17.8211 5.80329 14.7155 4.17356 12.335 1.716L12.125 1.5H11.875L11.665 1.716C9.28449 4.17356 6.17887 5.80329 2.804 6.366L2.408 6.432C2.13634 6.47727 1.86141 6.50001 1.586 6.5H1.5V8.5Z" stroke="black"/>
</svg>
