<svg width="24" height="24" viewBox="0 0 24 24" fill="none" xmlns="http://www.w3.org/2000/svg">
<path d="M2.5 20.462V19.423C3.018 19.359 3.432 19.189 3.742 18.913C4.05267 18.6377 4.59767 18.5 5.377 18.5C6.157 18.5 6.73467 18.6667 7.11 19C7.48533 19.3333 8.01133 19.5 8.688 19.5C9.36533 19.5 9.892 19.3333 10.268 19C10.6433 18.6667 11.2207 18.5 12 18.5C12.78 18.5 13.364 18.6667 13.752 19C14.14 19.3333 14.6727 19.5 15.35 19.5C16.0267 19.5 16.5467 19.3333 16.91 19C17.2727 18.6667 17.8437 18.5 18.623 18.5C19.4023 18.5 19.9473 18.6377 20.258 18.913C20.568 19.189 20.982 19.359 21.5 19.423V20.462C20.9013 20.3847 20.4287 20.205 20.082 19.923C19.7353 19.641 19.249 19.5 18.623 19.5C17.9977 19.5 17.5033 19.6667 17.14 20C16.7773 20.3333 16.1807 20.5 15.35 20.5C14.5193 20.5 13.9097 20.3333 13.521 20C13.1323 19.6667 12.6253 19.5 12 19.5C11.3747 19.5 10.874 19.6667 10.498 20C10.1227 20.3333 9.51933 20.5 8.688 20.5C7.85733 20.5 7.254 20.3333 6.878 20C6.50267 19.6667 6.00233 19.5 5.377 19.5C4.751 19.5 4.26467 19.641 3.918 19.923C3.57133 20.205 3.09867 20.3847 2.5 20.462ZM2.5 15.962V14.923C3.018 14.859 3.432 14.689 3.742 14.413C4.05267 14.1377 4.59767 14 5.377 14C6.157 14 6.73567 14.1667 7.113 14.5C7.49033 14.8333 8.01533 15 8.688 15C9.36533 15 9.892 14.8333 10.268 14.5C10.6427 14.1667 11.22 14 12 14C12.78 14 13.3577 14.1667 13.733 14.5C14.1083 14.8333 14.6347 15 15.312 15C15.9887 15 16.5147 14.8333 16.89 14.5C17.266 14.1667 17.8437 14 18.623 14C19.403 14 19.948 14.1377 20.258 14.413C20.568 14.689 20.982 14.859 21.5 14.923V15.962C20.9013 15.8847 20.4287 15.705 20.082 15.423C19.7353 15.141 19.249 15 18.623 15C17.9977 15 17.5063 15.1667 17.149 15.5C16.7917 15.8333 16.192 16 15.35 16C14.5153 16 13.9047 15.8333 13.518 15.5C13.1313 15.1667 12.6253 15 12 15C11.3667 15 10.8667 15.1667 10.5 15.5C10.1347 15.8333 9.53067 16 8.688 16C7.846 16 7.24 15.8333 6.87 15.5C6.5 15.1667 6.00233 15 5.377 15C4.751 15 4.26467 15.141 3.918 15.423C3.57133 15.705 3.09867 15.8847 2.5 15.962ZM16.43 3.692C17.0153 3.692 17.5143 3.89933 17.927 4.314C18.3403 4.72933 18.547 5.22733 18.547 5.808C18.547 6.39267 18.3403 6.89133 17.927 7.304C17.5137 7.71667 17.015 7.92333 16.431 7.924C15.8463 7.924 15.3477 7.71733 14.935 7.304C14.5217 6.89067 14.315 6.392 14.315 5.808C14.315 5.22733 14.5217 4.72933 14.935 4.314C15.3477 3.89933 15.8453 3.692 16.43 3.692ZM8.669 11.5C8.48567 11.5 8.325 11.4713 8.187 11.414C8.04833 11.3573 7.91433 11.2757 7.785 11.169L11.013 7.94L9.475 6.402L5.738 4.885V3.5L10.392 5.346L16.215 11.169C16.0857 11.2757 15.9517 11.3573 15.813 11.414C15.675 11.4713 15.5143 11.5 15.331 11.5C14.8843 11.5 14.4443 11.3333 14.011 11C13.5777 10.6667 12.9073 10.5 12 10.5C11.0927 10.5 10.422 10.6667 9.988 11C9.55467 11.3333 9.115 11.5 8.669 11.5Z" fill="black"/>
</svg>
